<?xml version="1.0" encoding="UTF-8" standalone="no"?>
<!DOCTYPE svg PUBLIC "-//W3C//DTD SVG 1.1//EN" "http://www.w3.org/Graphics/SVG/1.1/DTD/svg11.dtd">
<svg width="100%" height="100%" viewBox="0 0 18 26" version="1.1" xmlns="http://www.w3.org/2000/svg" xmlns:xlink="http://www.w3.org/1999/xlink" xml:space="preserve" xmlns:serif="http://www.serif.com/" style="fill-rule:evenodd;clip-rule:evenodd;stroke-linejoin:round;stroke-miterlimit:2;">
    <g transform="matrix(1,0,0,1,-7.29672,-3.20457)">
        <path d="M7.52,26.55C7.759,26.848 8.148,26.984 8.52,26.9L10.91,26.39L12.33,28.39C12.517,28.652 12.818,28.809 13.14,28.81L13.25,28.81C13.606,28.773 13.915,28.547 14.06,28.22L16,23.81L18,28.2C18.147,28.523 18.456,28.745 18.81,28.78L18.91,28.78C19.232,28.779 19.533,28.622 19.72,28.36L21.14,26.36L23.53,26.87C23.902,26.954 24.291,26.818 24.53,26.52C24.754,26.237 24.807,25.854 24.67,25.52L21.51,18.33C23.463,16.707 24.595,14.294 24.595,11.755C24.595,7.064 20.735,3.205 16.045,3.205C11.355,3.205 7.495,7.064 7.495,11.755C7.495,14.294 8.627,16.707 10.58,18.33L7.38,25.52C7.231,25.862 7.285,26.26 7.52,26.55ZM20.89,24.3C20.51,24.225 20.119,24.378 19.89,24.69L19.09,25.8L17.17,21.58C17.136,21.519 17.096,21.462 17.05,21.41L17.28,20.88L19.96,19.88L22,24.54L20.89,24.3ZM9.43,11.76C9.43,8.161 12.391,5.2 15.99,5.2C19.589,5.2 22.55,8.161 22.55,11.76C22.55,15.355 19.595,18.315 16,18.32C15.997,18.32 15.993,18.32 15.99,18.32C12.391,18.32 9.43,15.359 9.43,11.76C9.43,11.76 9.43,11.76 9.43,11.76ZM12.06,19.84L15,21L12.88,25.79L12.1,24.7C11.911,24.442 11.61,24.289 11.29,24.29C11.22,24.28 11.15,24.28 11.08,24.29L10,24.54L12.06,19.84Z" style="fill:white;fill-rule:nonzero;"/>
        <path d="M13.07,12.72L12.72,14.72C12.647,15.102 12.804,15.493 13.12,15.72C13.293,15.841 13.499,15.907 13.71,15.91C13.871,15.911 14.03,15.869 14.17,15.79L16.01,14.79L17.84,15.79C17.983,15.865 18.142,15.904 18.304,15.904C18.852,15.904 19.304,15.453 19.304,14.904C19.304,14.849 19.299,14.794 19.29,14.74L18.94,12.74L20.42,11.29C20.61,11.102 20.718,10.846 20.718,10.578C20.718,10.087 20.356,9.665 19.87,9.59L17.82,9.29L16.9,7.41C16.732,7.067 16.382,6.849 16,6.85C15.618,6.849 15.268,7.067 15.1,7.41L14.18,9.27L12.18,9.57C11.694,9.645 11.332,10.067 11.332,10.558C11.332,10.826 11.44,11.082 11.63,11.27L13.07,12.72ZM15,11.17C15.325,11.121 15.606,10.915 15.75,10.62L16.01,10.11L16.26,10.62C16.404,10.915 16.685,11.121 17.01,11.17L17.58,11.25L17.17,11.65C16.932,11.88 16.823,12.214 16.88,12.54L16.98,13.1L16.47,12.83C16.179,12.677 15.831,12.677 15.54,12.83L15.04,13.1L15.13,12.54C15.189,12.216 15.084,11.882 14.85,11.65L14.44,11.25L15,11.17Z" style="fill:white;fill-rule:nonzero;"/>
    </g>
</svg>
