<?xml version="1.0" encoding="UTF-8" standalone="no"?>
<!DOCTYPE svg PUBLIC "-//W3C//DTD SVG 1.1//EN" "http://www.w3.org/Graphics/SVG/1.1/DTD/svg11.dtd">
<svg width="100%" height="100%" viewBox="0 0 291 244" version="1.1" xmlns="http://www.w3.org/2000/svg" xmlns:xlink="http://www.w3.org/1999/xlink" xml:space="preserve" xmlns:serif="http://www.serif.com/" style="fill-rule:evenodd;clip-rule:evenodd;stroke-linejoin:round;stroke-miterlimit:2;">
    <g transform="matrix(1,0,0,1,-742.939,-779.53)">
        <g transform="matrix(0.702332,0,0,0.636816,1493.76,266.212)">
            <g transform="matrix(-0.862269,-0.00336382,0.00240227,-0.749012,-184.133,1386.26)">
                <g>
                    <path d="M813.62,472.83C803.682,468.406 797.03,456.494 797.03,443.124C797,388.203 797,261 797,261L1012.47,715L797,715L797,690.249C797,676.863 803.66,664.937 813.61,660.507C844.054,646.867 865.881,609.988 865.881,566.686C865.881,523.385 844.054,486.506 813.62,472.83ZM760.074,659.948C769.8,664.523 776.255,676.3 776.255,689.468C776.283,702.125 776.283,715 776.283,715L564.958,715L776.283,261L776.283,443.904C776.283,457.087 769.821,468.878 760.084,473.458C730.314,487.551 709.1,523.998 709.1,566.686C709.1,609.375 730.313,645.822 760.074,659.948ZM549.342,772.142L565.007,732.542L1012.52,730.533L1028.4,769.99L549.342,772.142Z" style="fill:rgb(250,252,255);"/>
                </g>
            </g>
        </g>
    </g>
</svg>
