<?xml version="1.0" encoding="UTF-8" standalone="no"?>
<!DOCTYPE svg PUBLIC "-//W3C//DTD SVG 1.1//EN" "http://www.w3.org/Graphics/SVG/1.1/DTD/svg11.dtd">
<svg width="100%" height="100%" viewBox="0 0 54 38" version="1.1" xmlns="http://www.w3.org/2000/svg" xmlns:xlink="http://www.w3.org/1999/xlink" xml:space="preserve" xmlns:serif="http://www.serif.com/" style="fill-rule:evenodd;clip-rule:evenodd;stroke-linejoin:round;stroke-miterlimit:2;">
    <g transform="matrix(2.01282,0,0,2.01282,-5.55537,-13.2637)">
        <path d="M6,25.41L26.1,25.41C27.85,25.41 29.29,23.97 29.29,22.22L29.29,9.78C29.29,8.03 27.85,6.59 26.1,6.59L6,6.59C5.983,6.59 5.967,6.59 5.95,6.59C4.2,6.59 2.76,8.03 2.76,9.78L2.76,22.22C2.76,23.97 4.2,25.41 5.95,25.41C5.967,25.41 5.983,25.41 6,25.41ZM26.1,23.41L6,23.41C5.347,23.41 4.81,22.873 4.81,22.22L4.81,21.43L27.24,21.43L27.24,22.22C27.24,22.873 26.703,23.41 26.05,23.41L26.1,23.41ZM6,8.59L26.1,8.59C26.751,8.595 27.285,9.129 27.29,9.78L27.29,19.43L4.76,19.43L4.76,9.78C4.765,9.125 5.305,8.589 5.96,8.589C5.973,8.589 5.987,8.59 6,8.59Z" style="fill-rule:nonzero;"/>
        <path d="M17.57,18.53C19.01,18.522 20.346,17.763 21.09,16.53L24.17,17.65C24.279,17.69 24.394,17.71 24.51,17.71C24.747,17.713 24.977,17.631 25.16,17.48C25.433,17.25 25.563,16.891 25.5,16.54L24.35,10C24.266,9.524 23.848,9.174 23.365,9.174C23.129,9.174 22.9,9.258 22.72,9.41L20.39,11.41C19.624,10.696 18.617,10.296 17.57,10.29C15.31,10.29 13.45,12.15 13.45,14.41C13.45,16.67 15.31,18.53 17.57,18.53ZM23.23,15.19L20.92,14.35L20.28,14.12L22.68,12.12L23.23,15.19ZM17.57,12.29C18.024,12.295 18.464,12.442 18.83,12.71L17.67,13.71C17.397,13.94 17.267,14.299 17.33,14.65C17.393,14.998 17.637,15.288 17.97,15.41L19.15,15.84C18.748,16.285 18.176,16.54 17.576,16.54C16.413,16.54 15.456,15.583 15.456,14.42C15.456,13.259 16.409,12.303 17.57,12.3L17.57,12.29Z" style="fill-rule:nonzero;"/>
        <path d="M11.09,11.02L11.09,12.64C11.09,13.192 10.642,13.64 10.09,13.64L8.47,13.64C7.918,13.64 7.47,13.192 7.47,12.64L7.47,11.02C7.47,10.468 7.918,10.02 8.47,10.02L10.09,10.02C10.642,10.02 11.09,10.468 11.09,11.02Z"/>
        <path d="M11.09,15.54L11.09,17.16C11.09,17.712 10.642,18.16 10.09,18.16L8.47,18.16C7.918,18.16 7.47,17.712 7.47,17.16L7.47,15.54C7.47,14.988 7.918,14.54 8.47,14.54L10.09,14.54C10.642,14.54 11.09,14.988 11.09,15.54Z"/>
    </g>
</svg>
