<?xml version="1.0" encoding="UTF-8" standalone="no"?>
<!DOCTYPE svg PUBLIC "-//W3C//DTD SVG 1.1//EN" "http://www.w3.org/Graphics/SVG/1.1/DTD/svg11.dtd">
<svg width="100%" height="100%" viewBox="0 0 66 66" version="1.1" xmlns="http://www.w3.org/2000/svg" xmlns:xlink="http://www.w3.org/1999/xlink" xml:space="preserve" xmlns:serif="http://www.serif.com/" style="fill-rule:evenodd;clip-rule:evenodd;stroke-linejoin:round;stroke-miterlimit:2;">
    <g transform="matrix(1,0,0,1,-6808.26,-1738.97)">
        <g transform="matrix(0.996909,0,0,0.811625,17.6781,0)">
            <g id="path5" transform="matrix(10.7684,0,0,13.2267,6170.81,2126.85)">
                <g id="network.svg">
                    <path id="path51" serif:id="path5" d="M61.741,7.262C61.376,7.186 61.084,6.956 60.929,6.62C60.892,6.539 60.847,6.384 60.839,6.31L60.835,6.274L60.567,6.274C60.309,6.274 60.299,6.275 60.296,6.298C60.289,6.342 60.203,6.451 60.14,6.494C60.068,6.545 59.998,6.566 59.907,6.566C59.669,6.566 59.474,6.333 59.517,6.1C59.55,5.922 59.669,5.802 59.846,5.767C60.021,5.731 60.214,5.836 60.283,6.003L60.31,6.066L60.829,6.066L60.834,6.039C60.885,5.79 60.913,5.714 61.003,5.57C61.117,5.387 61.301,5.229 61.503,5.14C61.806,5.008 62.162,5.021 62.46,5.175C62.624,5.26 62.802,5.424 62.888,5.569C62.906,5.599 62.919,5.611 62.928,5.604C62.935,5.598 63.028,5.529 63.133,5.45L63.325,5.307L63.3,5.219C63.281,5.148 63.276,5.096 63.276,4.941C63.276,4.768 63.279,4.741 63.308,4.644C63.368,4.446 63.459,4.292 63.599,4.154C63.736,4.018 63.819,3.969 64.081,3.866C64.099,3.86 64.069,3.814 63.893,3.579C63.777,3.425 63.675,3.29 63.665,3.279C63.649,3.261 63.639,3.264 63.538,3.312C63.348,3.401 63.137,3.437 62.938,3.413C62.817,3.398 62.665,3.355 62.573,3.308C62.293,3.167 62.063,2.888 61.986,2.597C61.975,2.554 61.962,2.519 61.958,2.519C61.943,2.519 61.501,2.904 61.501,2.917C61.501,2.924 61.526,2.968 61.557,3.013C61.651,3.157 61.715,3.333 61.732,3.495L61.74,3.572L62.001,3.778C62.145,3.891 62.273,3.989 62.284,3.996C62.301,4.006 62.322,4.001 62.374,3.975C62.467,3.929 62.602,3.922 62.7,3.959C62.789,3.993 62.877,4.076 62.92,4.168C62.948,4.228 62.953,4.255 62.953,4.334C62.953,4.414 62.947,4.442 62.919,4.505C62.778,4.812 62.332,4.812 62.191,4.505C62.161,4.44 62.157,4.416 62.158,4.334C62.159,4.282 62.162,4.222 62.164,4.202C62.168,4.166 62.158,4.156 61.948,3.992L61.728,3.82L61.701,3.916C61.516,4.573 60.798,4.918 60.182,4.648C59.867,4.51 59.629,4.228 59.543,3.891C59.408,3.363 59.697,2.798 60.207,2.592C60.283,2.561 60.419,2.524 60.484,2.517L60.514,2.513L60.52,1.989L60.475,1.969C60.4,1.936 60.333,1.879 60.291,1.814C60.241,1.738 60.222,1.675 60.222,1.587C60.222,1.347 60.454,1.152 60.689,1.196C60.866,1.229 60.986,1.348 61.021,1.526C61.056,1.7 60.951,1.893 60.785,1.962L60.722,1.988L60.722,2.507L60.749,2.513C60.921,2.548 60.975,2.562 61.045,2.591C61.114,2.619 61.239,2.691 61.323,2.751C61.346,2.768 61.365,2.753 61.645,2.515L61.942,2.26L61.957,2.158C62.056,1.473 62.721,1.042 63.381,1.236C63.751,1.344 64.042,1.647 64.141,2.026L64.169,2.133L64.924,2.498L65.003,2.458C65.07,2.425 65.098,2.418 65.178,2.414C65.302,2.409 65.385,2.438 65.469,2.517C65.556,2.599 65.595,2.689 65.595,2.811C65.595,2.896 65.591,2.916 65.556,2.986C65.429,3.245 65.088,3.293 64.896,3.079C64.818,2.993 64.788,2.907 64.795,2.793C64.798,2.744 64.804,2.696 64.809,2.686C64.814,2.674 64.804,2.663 64.777,2.651C64.756,2.642 64.613,2.573 64.461,2.499C64.308,2.425 64.181,2.365 64.18,2.365C64.178,2.365 64.173,2.398 64.169,2.44C64.146,2.659 64.037,2.893 63.876,3.066C63.843,3.101 63.816,3.133 63.816,3.135C63.816,3.138 63.932,3.295 64.074,3.484L64.332,3.829L64.406,3.829C64.495,3.829 64.637,3.854 64.744,3.89C65.074,3.999 65.348,4.285 65.454,4.632C65.484,4.73 65.487,4.756 65.488,4.935C65.488,5.149 65.476,5.217 65.409,5.379C65.336,5.557 65.169,5.758 65,5.872C64.629,6.122 64.135,6.123 63.767,5.875C63.672,5.811 63.514,5.653 63.455,5.563L63.41,5.495L63.218,5.639C63.112,5.719 63.02,5.788 63.014,5.794C63.007,5.8 63.011,5.833 63.023,5.877C63.041,5.941 63.069,6.159 63.063,6.189C63.062,6.195 63.231,6.282 63.439,6.382L63.817,6.565L63.86,6.535C64.01,6.434 64.235,6.459 64.364,6.591C64.445,6.674 64.477,6.754 64.477,6.875C64.477,6.962 64.472,6.986 64.444,7.043C64.291,7.355 63.865,7.355 63.712,7.043C63.684,6.985 63.68,6.963 63.681,6.875C63.682,6.82 63.684,6.764 63.687,6.752C63.691,6.733 63.639,6.704 63.364,6.571L63.037,6.413L63.006,6.507C62.88,6.878 62.589,7.149 62.21,7.249C62.103,7.277 61.848,7.285 61.741,7.262L61.741,7.262ZM62.138,7.052C62.174,7.045 62.237,7.026 62.278,7.01L62.352,6.98L62.352,6.861C62.352,6.746 62.351,6.742 62.318,6.708L62.283,6.673L61.606,6.673L61.574,6.703C61.543,6.731 61.542,6.735 61.546,6.86L61.549,6.988L61.646,7.021C61.807,7.076 61.963,7.085 62.138,7.052L62.138,7.052ZM64.191,7.041C64.24,7.007 64.28,6.933 64.28,6.874C64.28,6.81 64.234,6.731 64.179,6.7C64.013,6.607 63.819,6.777 63.892,6.951C63.941,7.068 64.086,7.111 64.191,7.041L64.191,7.041ZM61.369,6.64C61.396,6.588 61.459,6.527 61.515,6.5C61.558,6.478 61.589,6.477 61.948,6.477C62.322,6.477 62.336,6.477 62.382,6.502C62.484,6.557 62.543,6.648 62.552,6.765L62.558,6.841L62.593,6.807C62.688,6.718 62.792,6.534 62.83,6.389C62.861,6.271 62.863,6.07 62.835,5.953C62.807,5.838 62.723,5.67 62.65,5.582C62.582,5.5 62.45,5.394 62.357,5.348C62.016,5.178 61.605,5.235 61.327,5.492C60.963,5.83 60.934,6.405 61.263,6.766L61.335,6.844L61.342,6.761C61.345,6.716 61.357,6.662 61.368,6.64L61.369,6.64ZM61.864,6.251C61.773,6.232 61.712,6.197 61.649,6.129C61.458,5.925 61.538,5.581 61.799,5.484C62.009,5.405 62.227,5.498 62.32,5.706C62.358,5.792 62.355,5.931 62.314,6.022C62.234,6.194 62.046,6.291 61.864,6.251L61.864,6.251ZM62.049,6.031C62.124,5.989 62.164,5.887 62.14,5.805C62.112,5.711 62.045,5.66 61.949,5.66C61.829,5.659 61.745,5.743 61.745,5.865C61.745,6.014 61.915,6.107 62.049,6.031L62.049,6.031ZM60.014,6.336C60.151,6.258 60.146,6.052 60.004,5.984C59.92,5.943 59.844,5.954 59.777,6.016C59.708,6.081 59.693,6.166 59.735,6.253C59.785,6.355 59.913,6.393 60.014,6.336L60.014,6.336ZM64.643,5.816C64.689,5.802 64.742,5.782 64.76,5.772L64.794,5.755L64.79,5.637C64.787,5.527 64.784,5.517 64.753,5.486L64.72,5.453L64.043,5.453L64.01,5.486C63.978,5.518 63.977,5.524 63.977,5.641L63.977,5.762L64.048,5.79C64.17,5.839 64.251,5.852 64.411,5.847C64.523,5.844 64.581,5.836 64.643,5.816L64.643,5.816ZM63.825,5.394C63.843,5.368 63.881,5.33 63.908,5.309C63.983,5.252 64.069,5.242 64.439,5.247C64.791,5.252 64.815,5.257 64.902,5.347C64.955,5.403 64.98,5.459 64.99,5.548L64.998,5.615L65.045,5.57C65.098,5.518 65.185,5.392 65.215,5.322C65.267,5.202 65.282,5.13 65.289,4.983C65.294,4.855 65.291,4.819 65.27,4.733C65.18,4.377 64.915,4.123 64.56,4.049C64.099,3.954 63.626,4.246 63.501,4.703C63.472,4.81 63.465,5.018 63.487,5.122C63.522,5.285 63.597,5.435 63.703,5.552L63.762,5.617L63.777,5.529C63.787,5.47 63.802,5.427 63.825,5.394L63.825,5.394ZM64.263,5.026C64.148,4.99 64.048,4.895 64.006,4.782C63.971,4.689 63.977,4.55 64.019,4.465C64.059,4.385 64.137,4.309 64.219,4.271C64.315,4.227 64.448,4.226 64.544,4.271C64.815,4.397 64.87,4.741 64.649,4.939C64.545,5.033 64.393,5.067 64.263,5.026L64.263,5.026ZM64.463,4.824C64.484,4.815 64.516,4.791 64.534,4.77C64.668,4.61 64.506,4.378 64.311,4.452C64.224,4.486 64.185,4.545 64.185,4.645C64.185,4.788 64.328,4.88 64.463,4.824ZM62.652,4.512C62.67,4.503 62.699,4.475 62.718,4.451C62.746,4.414 62.751,4.396 62.751,4.334C62.751,4.272 62.746,4.254 62.718,4.217C62.675,4.161 62.624,4.135 62.555,4.135C62.381,4.135 62.289,4.334 62.403,4.464C62.468,4.539 62.565,4.557 62.652,4.512L62.652,4.512ZM60.883,4.497C60.922,4.484 60.971,4.466 60.993,4.458L61.031,4.442L61.031,4.331C61.031,4.195 61.015,4.156 60.951,4.139C60.893,4.122 60.361,4.122 60.303,4.139C60.234,4.158 60.222,4.184 60.222,4.324L60.222,4.445L60.308,4.476C60.437,4.523 60.487,4.53 60.656,4.525C60.77,4.522 60.83,4.515 60.883,4.497L60.883,4.497ZM60.053,4.095C60.083,4.037 60.137,3.989 60.21,3.955C60.261,3.931 60.283,3.93 60.627,3.93C60.972,3.93 60.992,3.931 61.044,3.955C61.157,4.007 61.221,4.102 61.233,4.233L61.24,4.31L61.313,4.223C61.573,3.915 61.61,3.499 61.41,3.156C61.352,3.057 61.196,2.899 61.1,2.842C60.817,2.676 60.485,2.668 60.192,2.821C60.059,2.89 59.891,3.059 59.821,3.192C59.745,3.338 59.717,3.45 59.717,3.62C59.717,3.706 59.723,3.789 59.733,3.829C59.773,3.986 59.861,4.147 59.965,4.255L60.014,4.306L60.021,4.225C60.025,4.177 60.038,4.124 60.053,4.095L60.053,4.095ZM60.507,3.707C60.434,3.685 60.338,3.613 60.292,3.544C60.185,3.384 60.205,3.169 60.34,3.035C60.541,2.835 60.874,2.897 60.991,3.155C61.038,3.256 61.039,3.388 60.994,3.483C60.927,3.627 60.796,3.713 60.639,3.717C60.589,3.719 60.53,3.714 60.507,3.707L60.507,3.707ZM60.729,3.49C60.786,3.456 60.829,3.382 60.829,3.316C60.829,3.262 60.795,3.201 60.741,3.157C60.704,3.127 60.686,3.121 60.628,3.121C60.543,3.12 60.483,3.157 60.447,3.231C60.358,3.412 60.555,3.592 60.729,3.49L60.729,3.49ZM63.322,3.176C63.362,3.163 63.412,3.145 63.433,3.136L63.473,3.12L63.469,2.999C63.465,2.884 63.463,2.875 63.432,2.844L63.399,2.811L63.111,2.807C62.787,2.803 62.734,2.807 62.691,2.844C62.665,2.867 62.66,2.883 62.654,2.968C62.644,3.105 62.649,3.119 62.724,3.149C62.848,3.198 62.92,3.209 63.09,3.205C63.21,3.201 63.269,3.194 63.322,3.176L63.322,3.176ZM65.298,2.985C65.373,2.942 65.413,2.841 65.389,2.758C65.361,2.664 65.294,2.614 65.198,2.613C64.967,2.611 64.915,2.924 65.133,3.002C65.185,3.02 65.246,3.014 65.298,2.985L65.298,2.985ZM62.458,2.912C62.46,2.789 62.539,2.676 62.651,2.634C62.698,2.616 62.75,2.614 63.086,2.617L63.468,2.621L63.527,2.661C63.559,2.683 63.598,2.719 63.613,2.74C63.645,2.788 63.673,2.877 63.673,2.933C63.673,2.955 63.679,2.972 63.685,2.97C63.714,2.96 63.832,2.802 63.876,2.716C63.943,2.582 63.971,2.461 63.971,2.305C63.971,1.902 63.73,1.567 63.346,1.437C63.236,1.399 63.216,1.396 63.072,1.396C62.946,1.395 62.901,1.4 62.825,1.422C62.484,1.52 62.236,1.787 62.167,2.129C62.119,2.366 62.181,2.652 62.32,2.835C62.366,2.895 62.438,2.972 62.448,2.972C62.453,2.972 62.457,2.945 62.458,2.912L62.458,2.912ZM62.912,2.375C62.82,2.339 62.722,2.238 62.686,2.144C62.649,2.046 62.655,1.91 62.701,1.821C62.807,1.614 63.055,1.536 63.258,1.647C63.543,1.802 63.528,2.224 63.233,2.363C63.142,2.406 63.004,2.411 62.912,2.375L62.912,2.375ZM63.16,2.174C63.311,2.089 63.294,1.872 63.132,1.811C63.067,1.786 63.009,1.793 62.948,1.834C62.845,1.902 62.834,2.061 62.926,2.147C62.985,2.203 63.088,2.214 63.16,2.174L63.16,2.174ZM60.729,1.764C60.845,1.696 60.861,1.539 60.762,1.446C60.667,1.357 60.519,1.377 60.454,1.489C60.348,1.669 60.549,1.869 60.729,1.764L60.729,1.764Z" style="fill-rule:nonzero;"/>
                </g>
            </g>
        </g>
    </g>
</svg>
