<?xml version="1.0" encoding="UTF-8" standalone="no"?>
<!DOCTYPE svg PUBLIC "-//W3C//DTD SVG 1.1//EN" "http://www.w3.org/Graphics/SVG/1.1/DTD/svg11.dtd">
<svg width="100%" height="100%" viewBox="0 0 61 73" version="1.1" xmlns="http://www.w3.org/2000/svg" xmlns:xlink="http://www.w3.org/1999/xlink" xml:space="preserve" xmlns:serif="http://www.serif.com/" style="fill-rule:evenodd;clip-rule:evenodd;stroke-linejoin:round;stroke-miterlimit:2;">
    <g transform="matrix(1,0,0,1,-6805.8,-2506.2)">
        <g transform="matrix(0.996909,0,0,0.811625,10.1247,0)">
            <g id="path7" transform="matrix(12.147,0,0,14.92,6650.91,2911.9)">
                <path d="M13.855,17.003L13.855,16.901L13.653,16.901L13.653,16.699L13.855,16.699L13.855,16.496L14.051,16.503L14.053,16.539C14.054,16.558 14.055,16.602 14.056,16.637L14.057,16.699L14.247,16.699L14.247,16.901L14.058,16.901L14.051,17.097L13.855,17.104L13.855,17.003ZM14.057,16.901L14.057,16.699L13.855,16.699L13.855,16.901L14.057,16.901ZM15.124,17.766C15.048,17.743 14.968,17.678 14.935,17.614C14.887,17.52 14.896,17.397 14.957,17.306L14.991,17.256L14.962,17.199C14.922,17.12 14.923,17.019 14.965,16.935C14.982,16.901 15.006,16.867 15.018,16.861C15.05,16.844 15.047,16.784 15.011,16.676C14.957,16.515 14.852,16.332 14.649,16.041C14.363,15.634 14.183,15.274 14.036,14.817C13.909,14.419 13.86,14.139 13.861,13.813C13.863,13.151 14.172,12.577 14.738,12.185C14.866,12.096 15.115,11.974 15.279,11.919C15.524,11.838 15.731,11.801 15.966,11.796C16.088,11.793 16.09,11.794 16.118,11.826L16.146,11.859L16.146,13.486L16.55,13.486L16.55,12.967L16.522,12.954C16.475,12.932 16.408,12.867 16.381,12.816C16.345,12.748 16.345,12.62 16.38,12.553C16.46,12.403 16.63,12.347 16.78,12.421C16.884,12.471 16.941,12.565 16.941,12.684C16.941,12.793 16.897,12.873 16.803,12.934L16.752,12.966L16.752,13.486L16.865,13.486C16.966,13.486 16.98,13.489 17.01,13.515C17.042,13.542 17.044,13.549 17.048,13.663L17.052,13.783L17.347,13.783L17.347,13.463L17.301,13.439C17.192,13.384 17.129,13.251 17.155,13.13C17.216,12.836 17.605,12.797 17.721,13.073C17.772,13.196 17.723,13.352 17.611,13.426L17.549,13.467L17.549,13.673C17.549,13.91 17.539,13.95 17.477,13.972C17.454,13.979 17.358,13.985 17.244,13.985L17.049,13.985L17.049,14.377L17.664,14.377L17.676,14.35C17.72,14.254 17.83,14.187 17.947,14.188C18.114,14.188 18.237,14.311 18.238,14.479C18.239,14.686 18.04,14.826 17.841,14.758C17.785,14.74 17.7,14.664 17.679,14.615L17.665,14.579L17.052,14.579L17.048,14.697C17.044,14.803 17.04,14.819 17.015,14.846L16.986,14.877L16.55,14.877L16.55,15.079L16.705,15.079C16.866,15.079 16.919,15.091 16.935,15.133C16.939,15.143 16.943,15.207 16.943,15.275C16.943,15.39 16.944,15.399 16.968,15.406C16.981,15.41 17.014,15.433 17.04,15.456C17.168,15.572 17.178,15.751 17.063,15.879C17.007,15.94 16.937,15.971 16.85,15.972C16.647,15.975 16.505,15.784 16.564,15.587C16.581,15.53 16.666,15.432 16.716,15.412C16.749,15.398 16.752,15.392 16.752,15.34L16.752,15.282L16.579,15.279C16.406,15.275 16.406,15.275 16.377,15.241C16.35,15.21 16.348,15.2 16.348,15.042L16.348,14.877L16.146,14.877L16.146,16.778L16.527,16.778C16.978,16.778 16.994,16.781 17.08,16.867C17.174,16.961 17.194,17.086 17.133,17.205L17.109,17.252L17.147,17.314C17.222,17.434 17.204,17.587 17.102,17.689C17.012,17.78 17.044,17.777 16.04,17.776C15.553,17.775 15.14,17.771 15.124,17.766L15.124,17.766ZM16.961,17.547C17.005,17.509 17.005,17.438 16.961,17.4L16.929,17.373L16.047,17.373C15.186,17.373 15.164,17.373 15.139,17.396C15.09,17.441 15.09,17.506 15.138,17.55C15.164,17.574 15.177,17.575 16.047,17.575L16.929,17.575L16.961,17.547ZM16.937,17.141C16.974,17.104 16.977,17.038 16.942,17.004C16.919,16.981 16.903,16.98 16.052,16.98C15.224,16.98 15.185,16.981 15.159,17.003C15.118,17.035 15.12,17.105 15.164,17.142L15.196,17.17L16.908,17.17L16.937,17.141ZM15.944,16.226C15.944,15.707 15.943,15.673 15.923,15.673C15.876,15.673 15.813,15.647 15.8,15.622C15.792,15.607 15.777,15.561 15.767,15.519C15.75,15.453 15.744,15.441 15.713,15.431C15.681,15.421 15.675,15.424 15.617,15.486C15.53,15.58 15.512,15.582 15.377,15.513C15.232,15.439 15.127,15.362 15.117,15.321C15.112,15.301 15.118,15.258 15.135,15.206L15.162,15.123L15.105,15.066L15.036,15.09C14.943,15.122 14.897,15.121 14.866,15.088C14.822,15.038 14.742,14.912 14.701,14.824C14.649,14.716 14.653,14.693 14.741,14.615C14.804,14.559 14.806,14.555 14.796,14.518C14.786,14.484 14.778,14.478 14.731,14.469C14.553,14.435 14.554,14.436 14.554,14.172C14.554,13.984 14.555,13.976 14.581,13.947C14.601,13.925 14.631,13.913 14.691,13.902C14.824,13.878 14.838,13.832 14.739,13.745C14.654,13.67 14.649,13.647 14.701,13.539C14.742,13.451 14.822,13.324 14.866,13.275C14.897,13.242 14.951,13.241 15.041,13.272L15.106,13.295L15.162,13.24L15.135,13.157C15.118,13.104 15.112,13.062 15.117,13.042C15.127,13.001 15.24,12.917 15.381,12.847C15.512,12.781 15.531,12.784 15.617,12.876C15.675,12.938 15.681,12.942 15.713,12.931C15.744,12.921 15.75,12.91 15.767,12.843C15.777,12.801 15.792,12.755 15.8,12.741C15.813,12.716 15.876,12.69 15.923,12.69C15.943,12.69 15.944,12.665 15.944,12.339L15.944,11.989L15.911,11.994C15.893,11.997 15.842,12.002 15.798,12.006C15.676,12.016 15.491,12.056 15.357,12.101C14.563,12.367 14.054,13.041 14.054,13.827C14.054,14.242 14.214,14.834 14.465,15.346C14.579,15.579 14.634,15.672 14.8,15.911C15.081,16.316 15.187,16.519 15.236,16.746L15.243,16.778L15.944,16.778L15.944,16.226ZM16.887,15.766C16.95,15.733 16.962,15.656 16.913,15.607C16.853,15.547 16.752,15.59 16.752,15.676C16.752,15.753 16.823,15.8 16.887,15.766L16.887,15.766ZM15.944,15.215C15.944,15.072 15.943,15.067 15.919,15.067C15.867,15.067 15.745,15.028 15.651,14.982C15.421,14.869 15.242,14.646 15.18,14.395C15.119,14.151 15.164,13.898 15.307,13.684C15.437,13.488 15.64,13.351 15.866,13.305C15.907,13.297 15.941,13.286 15.942,13.281C15.943,13.276 15.944,13.209 15.944,13.132C15.943,12.996 15.943,12.994 15.925,13.036C15.914,13.063 15.895,13.084 15.875,13.092C15.824,13.112 15.661,13.153 15.634,13.153C15.621,13.153 15.579,13.124 15.54,13.087L15.471,13.021L15.405,13.058C15.368,13.079 15.335,13.1 15.332,13.105C15.329,13.11 15.337,13.146 15.35,13.183C15.363,13.221 15.374,13.265 15.374,13.28C15.374,13.313 15.199,13.493 15.157,13.504C15.142,13.508 15.098,13.5 15.06,13.486C15.021,13.473 14.985,13.462 14.98,13.462C14.975,13.462 14.951,13.495 14.927,13.535L14.883,13.607L14.95,13.669C15.026,13.739 15.031,13.762 14.998,13.877C14.947,14.054 14.95,14.051 14.818,14.081L14.756,14.095L14.756,14.182C14.756,14.277 14.752,14.272 14.839,14.288C14.906,14.3 14.942,14.318 14.955,14.345C14.974,14.383 15.008,14.517 15.014,14.578C15.019,14.628 15.018,14.632 14.953,14.692L14.885,14.755L14.928,14.828C14.951,14.868 14.975,14.9 14.98,14.9C14.985,14.9 15.021,14.889 15.06,14.876C15.098,14.863 15.142,14.855 15.158,14.859C15.199,14.869 15.374,15.05 15.374,15.082C15.374,15.097 15.363,15.142 15.351,15.182L15.328,15.257L15.397,15.298C15.435,15.321 15.469,15.34 15.473,15.34C15.477,15.34 15.505,15.313 15.535,15.28C15.566,15.248 15.604,15.218 15.62,15.214C15.635,15.21 15.679,15.215 15.716,15.225C15.753,15.235 15.806,15.249 15.834,15.257C15.889,15.271 15.932,15.308 15.932,15.342C15.932,15.354 15.935,15.364 15.938,15.364C15.942,15.364 15.944,15.297 15.944,15.215L15.944,15.215ZM15.944,14.18L15.944,13.495L15.899,13.502C15.718,13.531 15.515,13.691 15.427,13.872C15.324,14.084 15.327,14.306 15.435,14.512C15.481,14.6 15.617,14.74 15.7,14.786C15.77,14.824 15.879,14.864 15.917,14.864L15.944,14.865L15.944,14.18ZM16.848,14.685L16.841,13.682L16.152,13.682L16.149,14.175C16.147,14.561 16.149,14.669 16.161,14.677C16.169,14.682 16.327,14.686 16.512,14.686L16.848,14.685ZM17.998,14.56C18.061,14.517 18.054,14.429 17.986,14.394C17.947,14.374 17.912,14.381 17.873,14.416C17.79,14.492 17.907,14.625 17.998,14.56L17.998,14.56ZM17.509,13.256C17.578,13.197 17.537,13.089 17.446,13.089C17.372,13.089 17.319,13.182 17.362,13.237C17.402,13.289 17.461,13.297 17.509,13.256L17.509,13.256ZM16.695,12.772C16.708,12.765 16.726,12.743 16.734,12.722C16.755,12.673 16.737,12.623 16.69,12.599C16.576,12.54 16.491,12.709 16.604,12.771C16.634,12.788 16.665,12.788 16.695,12.772L16.695,12.772ZM17.002,16.58C16.959,16.563 16.923,16.547 16.921,16.546C16.913,16.54 17.004,16.362 17.015,16.362C17.029,16.362 17.13,16.414 17.16,16.436C17.181,16.452 17.181,16.456 17.143,16.532C17.121,16.576 17.098,16.612 17.091,16.611C17.085,16.611 17.044,16.597 17.002,16.58L17.002,16.58ZM17.201,16.224L17.121,16.171L17.176,16.088C17.206,16.043 17.233,16.006 17.236,16.006C17.24,16.006 17.377,16.096 17.393,16.108C17.398,16.112 17.29,16.28 17.284,16.278C17.283,16.278 17.245,16.253 17.201,16.224L17.201,16.224ZM17.446,15.897C17.408,15.871 17.371,15.844 17.365,15.838C17.355,15.829 17.45,15.673 17.465,15.673C17.469,15.673 17.507,15.696 17.551,15.724L17.631,15.774L17.516,15.946L17.446,15.897ZM17.673,15.558C17.641,15.542 17.602,15.52 17.587,15.511L17.561,15.494L17.602,15.411C17.625,15.366 17.649,15.328 17.656,15.328C17.676,15.328 17.822,15.404 17.822,15.415C17.822,15.424 17.739,15.59 17.735,15.589C17.734,15.589 17.706,15.575 17.673,15.558L17.673,15.558ZM17.813,15.174C17.772,15.155 17.739,15.135 17.739,15.129C17.739,15.118 17.798,14.969 17.805,14.961C17.808,14.959 17.85,14.971 17.899,14.989C18,15.026 17.996,15.015 17.947,15.135C17.932,15.173 17.912,15.204 17.903,15.206C17.895,15.207 17.854,15.192 17.813,15.174L17.813,15.174ZM18.092,14C18.038,13.996 18.036,13.995 18.036,13.958C18.036,13.937 18.04,13.892 18.044,13.857L18.051,13.795L18.238,13.795L18.238,14.009L18.193,14.007C18.169,14.006 18.123,14.003 18.092,14L18.092,14ZM18.019,13.544C18.015,13.51 18.008,13.468 18.005,13.451C17.998,13.42 18.001,13.419 18.09,13.398C18.16,13.381 18.184,13.38 18.19,13.391C18.203,13.41 18.228,13.571 18.221,13.579C18.213,13.587 18.112,13.603 18.064,13.604C18.028,13.605 18.027,13.603 18.019,13.544L18.019,13.544ZM17.943,13.234L17.871,13.057L17.956,13.016C18.003,12.993 18.045,12.979 18.051,12.985C18.07,13.004 18.13,13.159 18.121,13.168C18.116,13.173 18.074,13.19 18.028,13.205L17.943,13.234ZM17.721,12.813C17.69,12.77 17.669,12.731 17.675,12.727C17.75,12.663 17.809,12.618 17.818,12.619C17.823,12.619 17.853,12.655 17.884,12.699C17.948,12.789 17.95,12.782 17.844,12.849L17.776,12.891L17.721,12.813ZM17.462,12.52L17.394,12.458L17.455,12.387C17.489,12.347 17.52,12.315 17.525,12.315C17.529,12.315 17.566,12.345 17.605,12.382L17.677,12.449L17.61,12.516C17.572,12.553 17.54,12.583 17.536,12.582C17.533,12.582 17.5,12.554 17.462,12.52L17.462,12.52ZM18.223,12.584C18.219,12.579 18.216,12.536 18.216,12.489L18.216,12.401L18.025,12.401L18.025,12.199L18.216,12.199L18.216,12.401L18.418,12.401L18.418,12.592L18.325,12.592C18.273,12.592 18.228,12.588 18.224,12.584L18.223,12.584ZM17.155,12.293L17.075,12.242L17.116,12.167C17.138,12.125 17.161,12.087 17.166,12.082C17.172,12.075 17.311,12.146 17.345,12.174C17.35,12.178 17.242,12.346 17.237,12.344C17.235,12.343 17.198,12.32 17.155,12.293L17.155,12.293ZM18.426,12.393C18.421,12.389 18.418,12.344 18.418,12.292L18.418,12.199L18.323,12.199C18.213,12.199 18.212,12.198 18.218,12.074L18.221,12.003L18.418,11.996L18.418,12.199L18.62,12.199L18.62,12.401L18.527,12.401C18.475,12.401 18.43,12.398 18.426,12.393L18.426,12.393ZM16.8,12.123C16.757,12.107 16.722,12.093 16.721,12.092C16.718,12.088 16.773,11.916 16.779,11.91C16.782,11.907 16.821,11.919 16.866,11.935C16.912,11.952 16.955,11.968 16.963,11.97C16.98,11.977 16.909,12.155 16.89,12.154C16.883,12.154 16.842,12.14 16.8,12.123L16.8,12.123ZM16.404,12.021C16.35,12.012 16.337,12.005 16.341,11.99C16.344,11.979 16.35,11.934 16.355,11.889C16.362,11.814 16.365,11.809 16.388,11.814C16.402,11.818 16.45,11.827 16.494,11.834C16.57,11.847 16.574,11.85 16.567,11.876C16.563,11.892 16.554,11.933 16.546,11.967C16.53,12.039 16.522,12.042 16.404,12.021L16.404,12.021Z" style="fill-rule:nonzero;"/>
            </g>
        </g>
    </g>
</svg>
