<?xml version="1.0" encoding="UTF-8" standalone="no"?>
<!DOCTYPE svg PUBLIC "-//W3C//DTD SVG 1.1//EN" "http://www.w3.org/Graphics/SVG/1.1/DTD/svg11.dtd">
<svg width="100%" height="100%" viewBox="0 0 66 66" version="1.1" xmlns="http://www.w3.org/2000/svg" xmlns:xlink="http://www.w3.org/1999/xlink" xml:space="preserve" xmlns:serif="http://www.serif.com/" style="fill-rule:evenodd;clip-rule:evenodd;stroke-linejoin:round;stroke-miterlimit:2;">
    <g transform="matrix(1,0,0,1,-6406.76,-2509.88)">
        <g transform="matrix(0.996909,0,0,0.811625,15.8278,0)">
            <g id="path6" transform="matrix(10.7291,0,0,13.1785,6397.97,2937.7)">
                <path d="M1.459,17.803C1.291,17.74 1.195,17.602 1.195,17.42C1.195,17.344 1.202,17.311 1.228,17.255C1.271,17.166 1.341,17.095 1.426,17.056L1.493,17.025L1.493,16.694C1.493,16.472 1.498,16.347 1.509,16.311C1.529,16.242 1.635,16.137 1.704,16.116C1.738,16.106 1.853,16.101 2.031,16.101L2.306,16.101L2.306,15.978C2.306,15.816 2.322,15.766 2.4,15.688C2.472,15.616 2.53,15.593 2.64,15.593L2.712,15.593L2.712,15.39L2.648,15.39C2.533,15.39 2.471,15.366 2.4,15.296C2.322,15.217 2.306,15.166 2.306,15.005L2.306,14.882L1.99,14.882L1.959,14.949C1.919,15.036 1.849,15.106 1.761,15.147C1.703,15.175 1.672,15.18 1.589,15.18C1.496,15.18 1.48,15.176 1.405,15.135C1.111,14.974 1.122,14.559 1.424,14.413C1.517,14.368 1.663,14.368 1.761,14.414C1.849,14.455 1.919,14.526 1.959,14.613L1.99,14.679L2.306,14.679L2.306,14.557C2.306,14.395 2.322,14.345 2.4,14.266C2.472,14.194 2.53,14.172 2.64,14.172L2.712,14.172L2.712,13.969L2.648,13.969C2.533,13.969 2.471,13.945 2.4,13.874C2.322,13.795 2.306,13.745 2.306,13.583L2.306,13.461L2.038,13.461C1.875,13.461 1.748,13.455 1.712,13.446C1.635,13.427 1.531,13.326 1.509,13.25C1.498,13.215 1.493,13.09 1.493,12.867L1.493,12.536L1.427,12.505C1.341,12.466 1.27,12.394 1.228,12.306C1.183,12.21 1.182,12.063 1.227,11.97C1.266,11.889 1.351,11.804 1.427,11.769C1.512,11.73 1.678,11.73 1.762,11.769C1.839,11.804 1.924,11.889 1.962,11.97C2.008,12.063 2.007,12.21 1.962,12.306C1.919,12.396 1.849,12.466 1.764,12.505L1.696,12.536L1.696,13.195L1.728,13.227C1.759,13.258 1.759,13.258 2.032,13.258L2.306,13.258L2.306,13.135C2.306,13.068 2.313,12.99 2.321,12.961C2.342,12.891 2.447,12.786 2.517,12.766C2.592,12.743 5.877,12.743 5.953,12.766C6.023,12.786 6.128,12.891 6.148,12.961C6.157,12.99 6.164,13.068 6.164,13.135L6.164,13.258L6.437,13.258C6.711,13.258 6.711,13.258 6.742,13.227L6.773,13.195L6.773,12.536L6.706,12.505C6.621,12.466 6.55,12.394 6.508,12.306C6.462,12.21 6.462,12.063 6.507,11.97C6.546,11.889 6.63,11.804 6.707,11.769C6.791,11.73 6.958,11.73 7.042,11.769C7.119,11.804 7.203,11.889 7.242,11.97C7.287,12.063 7.287,12.21 7.241,12.306C7.199,12.396 7.128,12.466 7.044,12.505L6.976,12.536L6.976,12.867C6.976,13.233 6.971,13.268 6.903,13.347C6.816,13.448 6.793,13.454 6.459,13.458L6.164,13.462L6.164,13.584C6.164,13.73 6.148,13.787 6.091,13.855C6.029,13.927 5.96,13.959 5.85,13.966L5.758,13.972L5.758,14.171L5.829,14.171C5.939,14.171 5.997,14.194 6.069,14.266C6.147,14.345 6.164,14.395 6.164,14.557L6.164,14.679L6.479,14.679L6.51,14.613C6.55,14.526 6.621,14.455 6.709,14.414C6.806,14.368 6.952,14.368 7.046,14.413C7.126,14.452 7.203,14.528 7.243,14.609C7.287,14.7 7.287,14.861 7.243,14.952C7.203,15.033 7.126,15.109 7.046,15.148C6.952,15.193 6.806,15.193 6.709,15.147C6.621,15.106 6.55,15.036 6.51,14.949L6.479,14.882L6.164,14.882L6.164,15.004C6.164,15.151 6.148,15.209 6.091,15.276C6.029,15.348 5.96,15.38 5.85,15.387L5.758,15.393L5.758,15.593L5.829,15.593C5.939,15.593 5.997,15.616 6.069,15.688C6.147,15.766 6.164,15.816 6.164,15.978L6.164,16.1L6.438,16.1C6.617,16.1 6.731,16.106 6.765,16.116C6.835,16.137 6.94,16.242 6.961,16.311C6.971,16.347 6.976,16.472 6.976,16.694L6.976,17.025L7.044,17.056C7.128,17.095 7.199,17.166 7.241,17.255C7.287,17.352 7.287,17.498 7.242,17.592C7.203,17.672 7.119,17.757 7.042,17.792C6.958,17.831 6.792,17.83 6.707,17.792C6.63,17.757 6.546,17.673 6.507,17.592C6.462,17.498 6.462,17.352 6.508,17.255C6.55,17.166 6.621,17.095 6.705,17.056L6.773,17.025L6.773,16.366L6.742,16.335C6.711,16.304 6.711,16.304 6.437,16.304L6.164,16.304L6.164,16.426C6.164,16.573 6.148,16.63 6.091,16.698C6.029,16.77 5.96,16.801 5.85,16.809L5.758,16.815L5.758,17.217L2.712,17.217L2.712,16.811L2.648,16.811C2.533,16.811 2.471,16.788 2.4,16.717C2.322,16.638 2.306,16.588 2.306,16.426L2.306,16.304L2.032,16.304C1.759,16.304 1.759,16.304 1.728,16.335L1.696,16.366L1.696,17.025L1.764,17.056C1.849,17.095 1.919,17.166 1.962,17.255C2.007,17.352 2.008,17.498 1.962,17.592C1.923,17.673 1.838,17.758 1.762,17.792C1.677,17.829 1.544,17.834 1.459,17.803L1.459,17.803ZM1.675,17.606C1.806,17.552 1.837,17.381 1.736,17.279C1.593,17.137 1.36,17.265 1.397,17.465C1.42,17.584 1.559,17.655 1.675,17.606ZM6.955,17.606C7.085,17.552 7.117,17.381 7.016,17.279C6.873,17.137 6.639,17.265 6.677,17.465C6.699,17.584 6.838,17.655 6.955,17.606ZM5.555,17.014L5.555,16.811L2.915,16.811L2.915,17.014L5.555,17.014ZM5.898,16.608L5.961,16.546L5.961,15.858L5.898,15.796L2.571,15.796L2.509,15.858L2.509,16.546L2.571,16.608L5.898,16.608ZM4.81,16.507L4.742,16.444L4.742,15.96L4.81,15.898L5.691,15.898L5.758,15.96L5.758,16.44L5.691,16.507L4.81,16.507ZM5.555,16.304L5.555,16.101L4.945,16.101L4.945,16.304L5.555,16.304ZM2.712,16.405L2.712,15.999L2.915,15.999L2.915,16.405L2.712,16.405ZM3.118,16.405L3.118,15.999L3.321,15.999L3.321,16.405L3.118,16.405ZM3.524,16.405L3.524,15.999L3.727,15.999L3.727,16.405L3.524,16.405ZM3.93,16.405L3.93,15.999L4.133,15.999L4.133,16.405L3.93,16.405ZM4.336,16.405L4.336,15.999L4.539,15.999L4.539,16.405L4.336,16.405ZM5.555,15.593L5.555,15.39L2.915,15.39L2.915,15.593L5.555,15.593ZM5.898,15.187L5.961,15.125L5.961,14.437L5.898,14.375L2.571,14.375L2.509,14.437L2.509,15.125L2.571,15.187L5.898,15.187ZM4.81,15.085L4.742,15.023L4.742,14.538L4.81,14.476L5.691,14.476L5.758,14.538L5.758,15.018L5.691,15.085L4.81,15.085ZM5.555,14.882L5.555,14.679L4.945,14.679L4.945,14.882L5.555,14.882ZM2.712,14.984L2.712,14.578L2.915,14.578L2.915,14.984L2.712,14.984ZM3.118,14.984L3.118,14.578L3.321,14.578L3.321,14.984L3.118,14.984ZM3.524,14.984L3.524,14.578L3.727,14.578L3.727,14.984L3.524,14.984ZM3.93,14.984L3.93,14.578L4.133,14.578L4.133,14.984L3.93,14.984ZM4.336,14.984L4.336,14.578L4.539,14.578L4.539,14.984L4.336,14.984ZM1.675,14.966C1.806,14.912 1.837,14.741 1.736,14.64C1.593,14.497 1.36,14.625 1.397,14.825C1.42,14.944 1.559,15.015 1.675,14.966ZM6.955,14.966C7.085,14.912 7.117,14.741 7.016,14.64C6.873,14.497 6.639,14.625 6.677,14.825C6.699,14.944 6.838,15.015 6.955,14.966ZM5.555,14.172L5.555,13.968L2.915,13.968L2.915,14.172L5.555,14.172ZM5.898,13.765L5.961,13.703L5.961,13.015L5.898,12.953L2.571,12.953L2.509,13.015L2.509,13.703L2.571,13.765L5.898,13.765ZM4.81,13.664L4.742,13.602L4.742,13.117L4.81,13.055L5.691,13.055L5.758,13.117L5.758,13.597L5.691,13.664L4.81,13.664ZM5.555,13.461L5.555,13.258L4.945,13.258L4.945,13.461L5.555,13.461ZM2.712,13.562L2.712,13.156L2.915,13.156L2.915,13.562L2.712,13.562ZM3.118,13.562L3.118,13.156L3.321,13.156L3.321,13.562L3.118,13.562ZM3.524,13.562L3.524,13.156L3.727,13.156L3.727,13.562L3.524,13.562ZM3.93,13.562L3.93,13.156L4.133,13.156L4.133,13.562L3.93,13.562ZM4.336,13.562L4.336,13.156L4.539,13.156L4.539,13.562L4.336,13.562ZM1.675,12.327C1.806,12.272 1.837,12.101 1.736,12C1.593,11.857 1.36,11.985 1.397,12.185C1.42,12.304 1.559,12.375 1.675,12.327ZM6.955,12.327C7.085,12.272 7.117,12.101 7.016,12C6.933,11.918 6.816,11.918 6.733,12C6.576,12.157 6.75,12.412 6.955,12.327Z" style="fill-rule:nonzero;"/>
            </g>
        </g>
    </g>
</svg>
