<?xml version="1.0" encoding="UTF-8" standalone="no"?>
<!DOCTYPE svg PUBLIC "-//W3C//DTD SVG 1.1//EN" "http://www.w3.org/Graphics/SVG/1.1/DTD/svg11.dtd">
<svg width="100%" height="100%" viewBox="0 0 63 63" version="1.1" xmlns="http://www.w3.org/2000/svg" xmlns:xlink="http://www.w3.org/1999/xlink" xml:space="preserve" xmlns:serif="http://www.serif.com/" style="fill-rule:evenodd;clip-rule:evenodd;stroke-linejoin:round;stroke-miterlimit:2;">
    <g transform="matrix(1,0,0,1,-6805.6,-971.253)">
        <g transform="matrix(1,0,0,5.44111,5844.8,-1603.79)">
            <g id="path2" transform="matrix(10.3372,0,0,1.89983,703.144,471.001)">
                <g id="service.svg">
                    <path id="path21" serif:id="path2" d="M27.638,7.271C27.509,7.253 27.456,7.187 27.456,7.042C27.456,6.848 27.349,6.631 27.199,6.52C27.064,6.421 26.896,6.37 26.753,6.385C26.584,6.402 26.437,6.468 26.317,6.581C26.222,6.671 26.128,6.676 26.029,6.597C25.887,6.483 25.593,6.175 25.552,6.096C25.535,6.063 25.535,5.979 25.552,5.947C25.559,5.934 25.596,5.885 25.635,5.839C25.753,5.698 25.805,5.564 25.805,5.396C25.805,5.171 25.7,4.971 25.519,4.851C25.405,4.775 25.329,4.748 25.189,4.734C25.046,4.719 24.982,4.689 24.948,4.619C24.927,4.578 24.925,4.543 24.925,4.229C24.925,3.884 24.925,3.883 24.955,3.824C24.992,3.75 25.041,3.723 25.136,3.723C25.231,3.723 25.35,3.693 25.454,3.643C25.555,3.595 25.698,3.463 25.741,3.378C25.877,3.11 25.84,2.826 25.64,2.603C25.559,2.513 25.542,2.471 25.554,2.393C25.563,2.342 25.61,2.283 25.782,2.105C25.945,1.937 26.085,1.822 26.147,1.805C26.209,1.788 26.274,1.807 26.319,1.854C26.38,1.918 26.525,2.006 26.614,2.034C26.716,2.066 26.903,2.071 26.997,2.045C27.167,1.997 27.323,1.868 27.402,1.711C27.447,1.62 27.468,1.54 27.478,1.421C27.489,1.292 27.51,1.25 27.584,1.215C27.622,1.197 27.67,1.193 27.896,1.189C28.215,1.183 28.356,1.195 28.405,1.233C28.459,1.276 28.479,1.325 28.479,1.419C28.481,1.67 28.627,1.91 28.843,2.017C28.946,2.068 29.019,2.084 29.135,2.083C29.323,2.082 29.475,2.02 29.621,1.888C29.719,1.798 29.809,1.794 29.907,1.873C30.049,1.986 30.342,2.295 30.384,2.373C30.401,2.406 30.401,2.49 30.384,2.522C30.377,2.536 30.339,2.585 30.301,2.631C30.058,2.919 30.073,3.293 30.336,3.552C30.444,3.659 30.596,3.722 30.784,3.74C30.888,3.75 30.957,3.787 30.988,3.85C31.009,3.891 31.011,3.927 31.011,4.241C31.011,4.579 31.01,4.587 30.983,4.643C30.944,4.721 30.899,4.742 30.755,4.75C30.531,4.762 30.343,4.869 30.217,5.057C30.068,5.279 30.084,5.61 30.254,5.813C30.386,5.971 30.379,5.959 30.379,6.039C30.379,6.107 30.376,6.117 30.332,6.171C30.209,6.323 29.909,6.609 29.832,6.649C29.754,6.688 29.68,6.673 29.602,6.602C29.452,6.466 29.306,6.408 29.111,6.409C28.913,6.409 28.786,6.462 28.653,6.598C28.533,6.72 28.472,6.86 28.457,7.047C28.447,7.177 28.426,7.219 28.352,7.255C28.313,7.273 28.269,7.277 28.01,7.279C27.846,7.281 27.679,7.277 27.638,7.271L27.638,7.271ZM28.316,5.95C28.379,5.937 28.478,5.909 28.536,5.889C28.643,5.851 28.897,5.728 28.897,5.713C28.897,5.709 28.726,5.535 28.518,5.326L28.138,4.947L28.043,4.977C27.652,5.101 27.21,4.988 26.935,4.695C26.842,4.596 26.799,4.533 26.741,4.411C26.644,4.208 26.612,3.972 26.652,3.751C26.678,3.608 26.708,3.568 26.79,3.568C26.841,3.568 26.844,3.57 27.11,3.834C27.258,3.981 27.389,4.107 27.403,4.113C27.429,4.127 27.639,4.105 27.765,4.077L27.83,4.062L27.845,3.996C27.853,3.96 27.866,3.886 27.872,3.83C27.879,3.774 27.888,3.708 27.892,3.683L27.899,3.637L27.623,3.361C27.323,3.059 27.312,3.043 27.353,2.963C27.378,2.915 27.393,2.908 27.515,2.883C27.648,2.856 27.874,2.864 28.002,2.9C28.596,3.07 28.931,3.688 28.746,4.274L28.716,4.369L29.476,5.129L29.53,5.018C29.972,4.12 29.596,3.058 28.688,2.642C28.099,2.372 27.412,2.456 26.89,2.86C26.474,3.183 26.217,3.707 26.217,4.235C26.217,5.097 26.868,5.845 27.725,5.968C27.885,5.991 28.162,5.982 28.316,5.95L28.316,5.95Z" style="fill-rule:nonzero;"/>
                </g>
            </g>
        </g>
    </g>
</svg>
