<?xml version="1.0" encoding="UTF-8" standalone="no"?>
<!DOCTYPE svg PUBLIC "-//W3C//DTD SVG 1.1//EN" "http://www.w3.org/Graphics/SVG/1.1/DTD/svg11.dtd">
<svg width="100%" height="100%" viewBox="0 0 54 38" version="1.1" xmlns="http://www.w3.org/2000/svg" xmlns:xlink="http://www.w3.org/1999/xlink" xml:space="preserve" xmlns:serif="http://www.serif.com/" style="fill-rule:evenodd;clip-rule:evenodd;stroke-linejoin:round;stroke-miterlimit:2;">
    <g id="computer.svg" transform="matrix(0.0833594,0,0,0.0833594,0,-2.6675)">
        <path d="M384,96L384,320L64,320L64,96L384,96ZM64,32C28.7,32 0,60.7 0,96L0,320C0,355.3 28.7,384 64,384L181.3,384L170.6,416L96,416C78.3,416 64,430.3 64,448C64,465.7 78.3,480 96,480L352,480C369.7,480 384,465.7 384,448C384,430.3 369.7,416 352,416L277.3,416L266.6,384L384,384C419.3,384 448,355.3 448,320L448,96C448,60.7 419.3,32 384,32L64,32ZM528,32C501.5,32 480,53.5 480,80L480,432C480,458.5 501.5,480 528,480L592,480C618.5,480 640,458.5 640,432L640,80C640,53.5 618.5,32 592,32L528,32ZM544,96L576,96C584.8,96 592,103.2 592,112C592,120.8 584.8,128 576,128L544,128C535.2,128 528,120.8 528,112C528,103.2 535.2,96 544,96ZM528,176C528,167.2 535.2,160 544,160L576,160C584.8,160 592,167.2 592,176C592,184.8 584.8,192 576,192L544,192C535.2,192 528,184.8 528,176ZM560,336C577.555,336 592,350.445 592,368C592,385.555 577.555,400 560,400C542.445,400 528,385.555 528,368C528,350.445 542.445,336 560,336Z" style="fill-rule:nonzero;"/>
    </g>
</svg>
