<?xml version="1.0" encoding="UTF-8" standalone="no"?>
<!DOCTYPE svg PUBLIC "-//W3C//DTD SVG 1.1//EN" "http://www.w3.org/Graphics/SVG/1.1/DTD/svg11.dtd">
<svg width="100%" height="100%" viewBox="0 0 80 90" version="1.1" xmlns="http://www.w3.org/2000/svg" xmlns:xlink="http://www.w3.org/1999/xlink" xml:space="preserve" xmlns:serif="http://www.serif.com/" style="fill-rule:evenodd;clip-rule:evenodd;stroke-linejoin:round;stroke-miterlimit:2;">
    <g transform="matrix(3.71058,0,0,3.71058,-18.9239,-15.2505)">
        <path d="M20.09,8.77C20.083,8.77 20.077,8.77 20.07,8.77C19.011,8.77 18.14,9.641 18.14,10.7C18.14,11.759 19.011,12.63 20.07,12.63C21.129,12.63 22,11.759 22,10.7C22,10.697 22,10.693 22,10.69C21.995,9.643 21.137,8.781 20.09,8.77ZM20.09,11.12C20.09,11.12 20.083,11.12 20.08,11.12C19.844,11.12 19.65,10.926 19.65,10.69C19.65,10.454 19.844,10.26 20.08,10.26C20.316,10.26 20.51,10.454 20.51,10.69C20.51,10.693 20.51,10.697 20.51,10.7C20.51,10.93 20.321,11.12 20.09,11.12Z" style="fill:rgb(27,27,27);fill-rule:nonzero;"/>
        <path d="M26,9.1L24.41,8.9L25.41,7.64C25.644,7.339 25.614,6.905 25.34,6.64L24.14,5.43C23.872,5.159 23.438,5.133 23.14,5.37L21.87,6.37L21.7,4.77C21.654,4.413 21.359,4.135 21,4.11L19.24,4.11C18.864,4.112 18.545,4.397 18.5,4.77L18.3,6.35L17,5.37C16.702,5.133 16.268,5.159 16,5.43L14.84,6.64C14.565,6.906 14.538,7.343 14.78,7.64L15.78,8.9L14.19,9.1C13.819,9.145 13.537,9.466 13.54,9.84L13.54,11.55C13.537,11.924 13.819,12.245 14.19,12.29L15.78,12.49L14.78,13.76C14.546,14.061 14.576,14.495 14.85,14.76L16,16C16.143,16.137 16.332,16.216 16.53,16.22C16.708,16.204 16.874,16.126 17,16L18.26,15L18.46,16.59C18.51,16.965 18.832,17.248 19.21,17.25L20.91,17.25C21.288,17.248 21.61,16.965 21.66,16.59L21.86,15.01L23.12,16.01C23.251,16.114 23.413,16.17 23.58,16.17C23.779,16.17 23.97,16.091 24.11,15.95L25.32,14.74C25.591,14.472 25.617,14.038 25.38,13.74L24.38,12.48L26,12.3C26.373,12.255 26.658,11.936 26.66,11.56L26.66,9.85C26.658,9.472 26.375,9.15 26,9.1ZM25.15,10.9L23.35,11.12C23.007,11.165 22.74,11.445 22.71,11.79C22.492,12.06 22.492,12.45 22.71,12.72L23.82,14.16L23.55,14.43L22.12,13.31C21.846,13.102 21.464,13.102 21.19,13.31C20.843,13.339 20.56,13.606 20.51,13.95L20.28,15.76L19.9,15.76L19.66,14C19.622,13.659 19.342,13.392 19,13.37C18.728,13.146 18.332,13.146 18.06,13.37L16.63,14.49L16.35,14.22L17.47,12.78C17.683,12.512 17.683,12.128 17.47,11.86C17.445,11.512 17.176,11.226 16.83,11.18L15,10.88L15,10.49L16.8,10.27C17.141,10.221 17.407,9.943 17.44,9.6C17.658,9.33 17.658,8.94 17.44,8.67L16.37,7.23L16.64,7L18.07,8.11C18.34,8.328 18.73,8.328 19,8.11C19.345,8.086 19.629,7.822 19.68,7.48L19.91,5.67L20.29,5.67L20.52,7.48C20.565,7.823 20.845,8.09 21.19,8.12C21.46,8.338 21.85,8.338 22.12,8.12L23.55,7L23.82,7.27L22.71,8.68C22.497,8.948 22.497,9.332 22.71,9.6C22.735,9.948 23.004,10.234 23.35,10.28L25.15,10.51L25.15,10.9Z" style="fill:rgb(27,27,27);fill-rule:nonzero;"/>
        <path d="M24.89,18.13C24.29,17.671 23.506,17.522 22.78,17.73L22.65,17.78L16.65,20.48C16.793,20.138 16.867,19.771 16.87,19.4C16.868,18.321 16.244,17.335 15.27,16.87L10.96,14.87C10.56,14.686 10.112,14.633 9.68,14.72L7.1,15.24L7.1,14.88C7.1,14.331 6.649,13.88 6.1,13.88C5.551,13.88 5.1,14.331 5.1,14.88L5.1,25.68C5.1,26.229 5.551,26.68 6.1,26.68C6.649,26.68 7.1,26.229 7.1,25.68L7.1,25.35L14,27.89C15.246,28.361 16.65,28.156 17.71,27.35L24.89,22C25.506,21.553 25.877,20.841 25.89,20.08C25.892,19.307 25.519,18.579 24.89,18.13ZM23.69,20.37L16.52,25.75C16.006,26.149 15.318,26.251 14.71,26.02L7.08,23.18L7.08,17.25L10.08,16.65L14.39,18.65C14.665,18.784 14.84,19.064 14.84,19.37C14.839,19.624 14.716,19.862 14.51,20.01C14.301,20.16 14.032,20.197 13.79,20.11L11.74,19.39C11.615,19.336 11.48,19.308 11.344,19.308C10.796,19.308 10.344,19.76 10.344,20.308C10.344,20.754 10.642,21.148 11.07,21.27L15.51,22.84C15.748,22.935 16.012,22.935 16.25,22.84L23.37,19.65C23.479,19.628 23.591,19.654 23.68,19.72C23.782,19.799 23.842,19.921 23.84,20.05C23.842,20.174 23.787,20.292 23.69,20.37Z" style="fill:rgb(27,27,27);fill-rule:nonzero;"/>
    </g>
</svg>
