<?xml version="1.0" encoding="UTF-8" standalone="no"?>
<!DOCTYPE svg PUBLIC "-//W3C//DTD SVG 1.1//EN" "http://www.w3.org/Graphics/SVG/1.1/DTD/svg11.dtd">
<svg width="100%" height="100%" viewBox="0 0 80 78" version="1.1" xmlns="http://www.w3.org/2000/svg" xmlns:xlink="http://www.w3.org/1999/xlink" xml:space="preserve" xmlns:serif="http://www.serif.com/" style="fill-rule:evenodd;clip-rule:evenodd;stroke-linejoin:round;stroke-miterlimit:2;">
    <g id="Layer_1-2" transform="matrix(3.67816,0,0,3.67816,0,0.00508383)">
        <path d="M9.25,21.18C9.13,21.178 9.012,21.154 8.9,21.11L0.65,18C0.269,17.858 0.011,17.497 0,17.09L0,7.92C0.001,7.593 0.161,7.286 0.43,7.1C0.702,6.918 1.046,6.881 1.35,7L9.6,10.06C9.991,10.206 10.251,10.582 10.25,11L10.25,20.18C10.249,20.507 10.089,20.814 9.82,21C9.651,21.113 9.453,21.175 9.25,21.18ZM2,16.4L8.25,18.73L8.25,11.73L2,9.36L2,16.4Z" style="fill:rgb(27,27,27);fill-rule:nonzero;"/>
        <path d="M12.5,21.18C12.297,21.175 12.099,21.113 11.93,21C11.661,20.814 11.501,20.507 11.5,20.18L11.5,11C11.499,10.582 11.759,10.206 12.15,10.06L20.4,7C20.708,6.887 21.052,6.932 21.32,7.12C21.589,7.306 21.749,7.613 21.75,7.94L21.75,17.11C21.751,17.528 21.491,17.904 21.1,18.05L12.85,21.13C12.737,21.167 12.619,21.184 12.5,21.18ZM13.5,11.69L13.5,18.69L19.75,16.36L19.75,9.36L13.5,11.69Z" style="fill:rgb(27,27,27);fill-rule:nonzero;"/>
        <path d="M10.88,8.86C10.761,8.861 10.642,8.841 10.53,8.8L1.33,5.37C0.935,5.227 0.671,4.85 0.671,4.43C0.671,4.01 0.935,3.633 1.33,3.49L10.53,0.06C10.753,-0.022 10.997,-0.022 11.22,0.06L20.42,3.49C20.815,3.633 21.079,4.01 21.079,4.43C21.079,4.85 20.815,5.227 20.42,5.37L11.22,8.8C11.111,8.84 10.996,8.86 10.88,8.86ZM4.54,4.43L10.88,6.79L17.21,4.43L10.88,2.07L4.54,4.43Z" style="fill:rgb(27,27,27);fill-rule:nonzero;"/>
    </g>
</svg>
