<?xml version="1.0" encoding="UTF-8" standalone="no"?>
<!DOCTYPE svg PUBLIC "-//W3C//DTD SVG 1.1//EN" "http://www.w3.org/Graphics/SVG/1.1/DTD/svg11.dtd">
<svg width="100%" height="100%" viewBox="0 0 80 85" version="1.1" xmlns="http://www.w3.org/2000/svg" xmlns:xlink="http://www.w3.org/1999/xlink" xml:space="preserve" xmlns:serif="http://www.serif.com/" style="fill-rule:evenodd;clip-rule:evenodd;stroke-linejoin:round;stroke-miterlimit:2;">
    <g transform="matrix(3.33333,0,0,3.33333,-13.3333,-11.2333)">
        <path d="M26,27.63C26,28.179 26.451,28.63 27,28.63C27.549,28.63 28,28.179 28,27.63C28,23.52 24.68,20.01 20.07,18.69C20.767,18.144 21.348,17.464 21.78,16.69L24.18,16.32C25.206,16.174 25.981,15.296 26,14.26L26,12.74C26.003,12.106 25.72,11.503 25.23,11.1C25.04,10.945 24.823,10.826 24.59,10.75C23.873,6.563 20.247,3.448 16,3.37C11.731,3.391 8.068,6.533 7.4,10.75C7.171,10.828 6.957,10.946 6.77,11.1C6.28,11.503 5.997,12.106 6,12.74L6,14.26C5.994,15.311 6.77,16.216 7.81,16.37L10.21,16.74C10.642,17.514 11.223,18.194 11.92,18.74C7.31,20 4,23.52 4,27.63C4,28.179 4.451,28.63 5,28.63C5.549,28.63 6,28.179 6,27.63C6,23.48 10.49,20.11 16,20.11C21.51,20.11 26,23.48 26,27.63ZM11.28,13.36C11.28,10.771 13.411,8.64 16,8.64C18.589,8.64 20.72,10.771 20.72,13.36C20.72,15.949 18.589,18.08 16,18.08C13.411,18.08 11.28,15.949 11.28,13.36ZM24,14.26C24.001,14.324 23.954,14.38 23.89,14.39L22.6,14.59C22.676,14.184 22.716,13.773 22.72,13.36C22.73,13.18 22.73,13 22.72,12.82L23.87,12.61C23.904,12.59 23.946,12.59 23.98,12.61C24.012,12.633 24.031,12.671 24.03,12.71L24,14.26ZM16,5.37C19.17,5.457 21.893,7.712 22.57,10.81L22.24,10.87C21.222,8.323 18.743,6.644 16,6.644C13.257,6.644 10.778,8.323 9.76,10.87L9.41,10.81C10.055,7.686 12.81,5.412 16,5.37ZM8.11,14.37C8.053,14.362 8.008,14.317 8,14.26L8,12.74C7.999,12.701 8.018,12.663 8.05,12.64C8.084,12.62 8.126,12.62 8.16,12.64L9.31,12.85C9.3,13.03 9.3,13.21 9.31,13.39C9.314,13.803 9.354,14.214 9.43,14.62L8.11,14.37Z" style="fill:rgb(27,27,27);fill-rule:nonzero;"/>
    </g>
</svg>
